{"title":"Crime of Passion S01E01 Death of a Loved One x264 RB58.mp4","uid":10957326,"size":964411652,"categoryP":"video","categoryS":"tv_shows","magnet":"?xt=urn:btih:a815d9df3c1a6593bba7818f99f1e4767688ff5b&amp;dn=Crime+of+Passion+S01E01+Death+of+a+Loved+One+x264+RB58.mp4&amp;tr=udp%3A%2F%2Ftracker.openbittorrent.com%3A80&amp;tr=udp%3A%2F%2Fopen.demonii.com%3A1337&amp;tr=udp%3A%2F%2Ftracker.coppersurfer.tk%3A6969&amp;tr=udp%3A%2F%2Fexodus.desync.com%3A6969","seeders":13,"leechers":1,"uploader":"RedBaron58","files":1,"time":1409691257,"description":"Crime of Passion (Swedish) S01E01 English Subs x264 mp4\n\nIn Swedish With BBC Hard Coded Engish Subtitles \n\nEpisode Title: Death of a Loved One\n &lt;a href=&quot;\nhttp://www.imdb.com/title/tt2504308/&quot; rel=&quot;nofollow&quot; target=&quot;_NEW&quot;&gt;\nhttp://www.imdb.com/title/tt2504308/&lt;/a&gt;\n\nTrailer:\n\n\nThank you for your kind comments and thumbs ups on my other torrents, your feedback is welcome.\n\n\nAbout the Episode:\nIn Bergslagen in the 1950s, amateur sleuth Puck Ekstedt, her student boyfriend Einar Bure and their police \nsuperintendent friend Christer Wijk set out to solve a series of murders. \nIn the first episode, a female guest is killed at a university tutor's summer house on a secluded island. \n\nSwedish crime drama, starring Tuva Novotny, Linus Wahlgren and Ola Rapace\n\n\nI hope you enjoy.\n\nTechnical:\n\nGeneral\nComplete name                            : H:Crime of Passion S01E01 Death of a Loved One x264 RB58.mp4\nFormat                                   : MPEG-4\nFormat profile                           : Base Media\nCodec ID                                 : isom\nFile size                                : 920 MiB\nDuration                                 : 1h 24mn\nOverall bit rate                         : 1 528 Kbps\nWriting application                      : Lavf54.63.104\n\nVideo\nID                                       : 1\nFormat                                   : AVC\nFormat/Info                              : Advanced Video Codec\nFormat profile                           : &lt;a class=&quot;__cf_email__&quot; href=&quot;/cdn-cgi/l/email-protection&quot; data-cfemail=&quot;b9f1d0ded1f9f58a9789&quot;&gt;[email&amp;#160;protected]&lt;/a&gt;&lt;script cf-hash='f9e31' type=&quot;text/javascript&quot;&gt;\n/* &lt;![CDATA[ */!function(){try{var t=&quot;currentScript&quot;in document?document.currentScript:function(){for(var t=document.getElementsByTagName(&quot;script&quot;),e=t.length;e--;)if(t[e].getAttribute(&quot;cf-hash&quot;))return t[e]}();if(t&amp;&amp;t.previousSibling){var e,r,n,i,c=t.previousSibling,a=c.getAttribute(&quot;data-cfemail&quot;);if(a){for(e=&quot;&quot;,r=parseInt(a.substr(0,2),16),n=2;a.length-n;n+=2)i=parseInt(a.substr(n,2),16)^r,e+=String.fromCharCode(i);e=document.createTextNode(e),c.parentNode.replaceChild(e,c)}}}catch(u){}}();/* ]]&gt; */&lt;/script&gt;\nFormat settings, CABAC                   : Yes\nFormat settings, ReFrames                : 4 frames\nCodec ID                                 : avc1\nCodec ID/Info                            : Advanced Video Coding\nDuration                                 : 1h 24mn\nBit rate                                 : 1 400 Kbps\nWidth                                    : 832 pixels\nHeight                                   : 468 pixels\nDisplay aspect ratio                     : 16:9\nFrame rate mode                          : Constant\nFrame rate                               : 25.000 fps\nColor space                              : YUV\nChroma subsampling                       : 4:2:0\nBit depth                                : 8 bits\nScan type                                : Progressive\nBits/(Pixel*Frame)                       : 0.144\nStream size                              : 843 MiB (92%)\nWriting library                          : x264 core 123 r2189 35cf912\nEncoding settings                        : cabac=1 / ref=3 / deblock=1:0:0\n\nAudio\nID                                       : 2\nFormat                                   : AAC\nFormat/Info                              : Advanced Audio Codec\nFormat profile                           : LC\nCodec ID                                 : 40\nDuration                                 : 1h 24mn\nBit rate mode                            : Constant\nBit rate                                 : 119 Kbps\nChannel(s)                               : 2 channels\nChannel positions                        : Front: L R\nSampling rate                            : 48.0 KHz\nCompression mode                         : Lossy\nStream size                              : 71.9 MiB (8%)","torrent":{"xt":"urn:btih:a815d9df3c1a6593bba7818f99f1e4767688ff5b","amp;dn":"Crime+of+Passion+S01E01+Death+of+a+Loved+One+x264+RB58.mp4","amp;tr":["udp%3A%2F%2Ftracker.openbittorrent.com%3A80","udp%3A%2F%2Fopen.demonii.com%3A1337","udp%3A%2F%2Ftracker.coppersurfer.tk%3A6969","udp%3A%2F%2Fexodus.desync.com%3A6969"],"infoHash":"a815d9df3c1a6593bba7818f99f1e4767688ff5b","infoHashBuffer":{"type":"Buffer","data":[168,21,217,223,60,26,101,147,187,167,129,143,153,241,228,118,118,136,255,91]},"announce":[],"urlList":[]}}